<svg width="765" height="765" viewBox="0 0 765 765" fill="none" xmlns="http://www.w3.org/2000/svg">
<path fill-rule="evenodd" clip-rule="evenodd" d="M1.15625 611.346L1.15625 10.1935C1.15625 5.08586 5.29679 0.945313 10.4044 0.945313L181.196 0.945313C186.304 0.945313 190.444 5.08586 190.444 10.1935L190.444 306.146V602.098C190.444 607.206 194.585 611.346 199.693 611.346H754.909C760.017 611.346 764.157 615.487 764.157 620.594V754.698C764.157 759.806 760.017 763.947 754.909 763.947H10.4044C5.29681 763.947 1.15625 759.806 1.15625 754.698L1.15625 611.346ZM30.5107 556.106C30.5107 553.411 32.6958 551.226 35.3912 551.226H153.563C156.258 551.226 158.443 553.411 158.443 556.106V591.806C158.443 594.502 156.258 596.687 153.563 596.687H35.3912C32.6958 596.687 30.5107 594.502 30.5107 591.806V556.106ZM35.3912 492.882C32.6958 492.882 30.5107 495.067 30.5107 497.763V533.463C30.5107 536.158 32.6958 538.344 35.3912 538.344H153.563C156.258 538.344 158.443 536.158 158.443 533.463V497.763C158.443 495.067 156.258 492.882 153.563 492.882H35.3912ZM30.5107 439.389C30.5107 436.694 32.6958 434.508 35.3912 434.508H153.563C156.258 434.508 158.443 436.694 158.443 439.389V475.089C158.443 477.785 156.258 479.97 153.563 479.97H35.3912C32.6958 479.97 30.5107 477.785 30.5107 475.089L30.5107 439.389ZM35.3912 376.163C32.6958 376.163 30.5107 378.348 30.5107 381.044L30.5107 416.744C30.5107 419.439 32.6958 421.624 35.3912 421.624H153.563C156.258 421.624 158.443 419.439 158.443 416.744V381.044C158.443 378.348 156.258 376.163 153.563 376.163H35.3912ZM30.5107 322.707C30.5107 320.011 32.6958 317.826 35.3912 317.826H153.563C156.258 317.826 158.443 320.011 158.443 322.707V358.407C158.443 361.102 156.258 363.287 153.563 363.287H35.3912C32.6958 363.287 30.5107 361.102 30.5107 358.407V322.707ZM35.3912 259.446C32.6958 259.446 30.5107 261.631 30.5107 264.327V300.027C30.5107 302.722 32.6958 304.907 35.3912 304.907H153.563C156.258 304.907 158.443 302.722 158.443 300.027L158.443 264.327C158.443 261.631 156.258 259.446 153.563 259.446H35.3912ZM30.5107 205.99C30.5107 203.294 32.6958 201.109 35.3912 201.109H153.563C156.258 201.109 158.443 203.294 158.443 205.99V241.69C158.443 244.385 156.258 246.57 153.563 246.57H35.3912C32.6958 246.57 30.5107 244.385 30.5107 241.69V205.99ZM35.3912 142.751C32.6958 142.751 30.5107 144.937 30.5107 147.632L30.5107 183.332C30.5107 186.028 32.6958 188.213 35.3912 188.213H153.563C156.258 188.213 158.443 186.028 158.443 183.332V147.632C158.443 144.937 156.258 142.751 153.563 142.751H35.3912ZM30.5107 89.2827C30.5107 86.5872 32.6958 84.4021 35.3912 84.4021L153.563 84.4021C156.258 84.4021 158.443 86.5872 158.443 89.2827V124.983C158.443 127.678 156.258 129.863 153.563 129.863H35.3912C32.6958 129.863 30.5107 127.678 30.5107 124.983L30.5107 89.2827ZM35.3912 26.0466C32.6958 26.0466 30.5107 28.2317 30.5107 30.9272L30.5107 66.6273C30.5107 69.3227 32.6958 71.5078 35.3912 71.5078L153.563 71.5078C156.258 71.5078 158.443 69.3227 158.443 66.6273V30.9272C158.443 28.2317 156.258 26.0466 153.563 26.0466L35.3912 26.0466ZM402.445 646.807C402.445 652.021 398.091 656.249 392.72 656.249C387.349 656.249 382.995 652.021 382.995 646.807C382.995 641.592 387.349 637.365 392.72 637.365C398.091 637.365 402.445 641.592 402.445 646.807ZM392.731 733.386C411.107 733.386 426.004 718.762 426.004 700.723C426.004 682.684 411.107 668.061 392.731 668.061C374.354 668.061 359.457 682.684 359.457 700.723C359.457 718.762 374.354 733.386 392.731 733.386Z" fill="black"/>
<path d="M0.642463 10.1935L0.642463 611.346H1.67004L1.67004 10.1935H0.642463ZM10.4044 0.431526C5.01304 0.431526 0.642463 4.8021 0.642463 10.1935H1.67004C1.67004 5.36961 5.58055 1.4591 10.4044 1.4591V0.431526ZM181.196 0.431526L10.4044 0.431526V1.4591L181.196 1.4591V0.431526ZM190.958 10.1935C190.958 4.8021 186.588 0.431526 181.196 0.431526V1.4591C186.02 1.4591 189.931 5.36961 189.931 10.1935H190.958ZM190.958 306.146L190.958 10.1935H189.931L189.931 306.146H190.958ZM190.958 602.098V306.146H189.931V602.098H190.958ZM199.693 610.832C194.869 610.832 190.958 606.922 190.958 602.098H189.931C189.931 607.489 194.301 611.86 199.693 611.86V610.832ZM754.909 610.832H199.693V611.86H754.909V610.832ZM764.671 620.594C764.671 615.203 760.301 610.832 754.909 610.832V611.86C759.733 611.86 763.644 615.771 763.644 620.594H764.671ZM764.671 754.698V620.594H763.644V754.698H764.671ZM754.909 764.46C760.301 764.46 764.671 760.09 764.671 754.698H763.644C763.644 759.522 759.733 763.433 754.909 763.433V764.46ZM10.4044 764.46H754.909V763.433H10.4044V764.46ZM0.642463 754.698C0.642463 760.09 5.01305 764.46 10.4044 764.46V763.433C5.58056 763.433 1.67004 759.522 1.67004 754.698H0.642463ZM0.642463 611.346L0.642463 754.698H1.67004L1.67004 611.346H0.642463ZM35.3912 550.712C32.412 550.712 29.9969 553.127 29.9969 556.106H31.0245C31.0245 553.694 32.9795 551.739 35.3912 551.739V550.712ZM153.563 550.712H35.3912V551.739H153.563V550.712ZM158.957 556.106C158.957 553.127 156.542 550.712 153.563 550.712V551.739C155.974 551.739 157.929 553.694 157.929 556.106H158.957ZM158.957 591.806V556.106H157.929V591.806H158.957ZM153.563 597.201C156.542 597.201 158.957 594.785 158.957 591.806H157.929C157.929 594.218 155.974 596.173 153.563 596.173V597.201ZM35.3912 597.201H153.563V596.173H35.3912V597.201ZM29.9969 591.806C29.9969 594.785 32.412 597.201 35.3912 597.201V596.173C32.9795 596.173 31.0245 594.218 31.0245 591.806H29.9969ZM29.9969 556.106V591.806H31.0245V556.106H29.9969ZM31.0245 497.763C31.0245 495.351 32.9795 493.396 35.3912 493.396V492.369C32.412 492.369 29.9969 494.784 29.9969 497.763H31.0245ZM31.0245 533.463V497.763H29.9969V533.463H31.0245ZM35.3912 537.83C32.9795 537.83 31.0245 535.875 31.0245 533.463H29.9969C29.9969 536.442 32.412 538.857 35.3912 538.857V537.83ZM153.563 537.83H35.3912V538.857H153.563V537.83ZM157.929 533.463C157.929 535.875 155.974 537.83 153.563 537.83V538.857C156.542 538.857 158.957 536.442 158.957 533.463H157.929ZM157.929 497.763V533.463H158.957V497.763H157.929ZM153.563 493.396C155.974 493.396 157.929 495.351 157.929 497.763H158.957C158.957 494.784 156.542 492.369 153.563 492.369V493.396ZM35.3912 493.396H153.563V492.369H35.3912V493.396ZM35.3912 433.995C32.412 433.995 29.9969 436.41 29.9969 439.389H31.0245C31.0245 436.977 32.9795 435.022 35.3912 435.022V433.995ZM153.563 433.995H35.3912V435.022H153.563V433.995ZM158.957 439.389C158.957 436.41 156.542 433.995 153.563 433.995V435.022C155.974 435.022 157.929 436.977 157.929 439.389H158.957ZM158.957 475.089V439.389H157.929V475.089H158.957ZM153.563 480.483C156.542 480.483 158.957 478.068 158.957 475.089H157.929C157.929 477.501 155.974 479.456 153.563 479.456V480.483ZM35.3912 480.483H153.563V479.456H35.3912V480.483ZM29.9969 475.089C29.9969 478.068 32.412 480.483 35.3912 480.483V479.456C32.9795 479.456 31.0245 477.501 31.0245 475.089H29.9969ZM29.9969 439.389L29.9969 475.089H31.0245L31.0245 439.389H29.9969ZM31.0245 381.044C31.0245 378.632 32.9795 376.677 35.3912 376.677V375.649C32.412 375.649 29.9969 378.065 29.9969 381.044H31.0245ZM31.0245 416.744L31.0245 381.044H29.9969L29.9969 416.744H31.0245ZM35.3912 421.111C32.9795 421.111 31.0245 419.156 31.0245 416.744H29.9969C29.9969 419.723 32.412 422.138 35.3912 422.138V421.111ZM153.563 421.111H35.3912V422.138H153.563V421.111ZM157.929 416.744C157.929 419.156 155.974 421.111 153.563 421.111V422.138C156.542 422.138 158.957 419.723 158.957 416.744H157.929ZM157.929 381.044V416.744H158.957V381.044H157.929ZM153.563 376.677C155.974 376.677 157.929 378.632 157.929 381.044H158.957C158.957 378.065 156.542 375.649 153.563 375.649V376.677ZM35.3912 376.677H153.563V375.649H35.3912V376.677ZM35.3912 317.312C32.412 317.312 29.9969 319.727 29.9969 322.707H31.0245C31.0245 320.295 32.9795 318.34 35.3912 318.34V317.312ZM153.563 317.312H35.3912V318.34H153.563V317.312ZM158.957 322.707C158.957 319.727 156.542 317.312 153.563 317.312V318.34C155.974 318.34 157.929 320.295 157.929 322.707H158.957ZM158.957 358.407V322.707H157.929V358.407H158.957ZM153.563 363.801C156.542 363.801 158.957 361.386 158.957 358.407H157.929C157.929 360.818 155.974 362.774 153.563 362.774V363.801ZM35.3912 363.801H153.563V362.774H35.3912V363.801ZM29.9969 358.407C29.9969 361.386 32.412 363.801 35.3912 363.801V362.774C32.9795 362.774 31.0245 360.818 31.0245 358.407H29.9969ZM29.9969 322.707V358.407H31.0245V322.707H29.9969ZM31.0245 264.327C31.0245 261.915 32.9795 259.96 35.3912 259.96V258.932C32.412 258.932 29.9969 261.347 29.9969 264.327H31.0245ZM31.0245 300.027V264.327H29.9969V300.027H31.0245ZM35.3912 304.393C32.9795 304.393 31.0245 302.438 31.0245 300.027H29.9969C29.9969 303.006 32.412 305.421 35.3912 305.421V304.393ZM153.563 304.393H35.3912V305.421H153.563V304.393ZM157.929 300.027C157.929 302.438 155.974 304.393 153.563 304.393V305.421C156.542 305.421 158.957 303.006 158.957 300.027H157.929ZM157.929 264.327L157.929 300.027H158.957L158.957 264.327H157.929ZM153.563 259.96C155.974 259.96 157.929 261.915 157.929 264.327H158.957C158.957 261.347 156.542 258.932 153.563 258.932V259.96ZM35.3912 259.96H153.563V258.932H35.3912V259.96ZM35.3912 200.595C32.412 200.595 29.9969 203.01 29.9969 205.99H31.0245C31.0245 203.578 32.9795 201.623 35.3912 201.623V200.595ZM153.563 200.595H35.3912V201.623H153.563V200.595ZM158.957 205.99C158.957 203.01 156.542 200.595 153.563 200.595V201.623C155.974 201.623 157.929 203.578 157.929 205.99H158.957ZM158.957 241.69V205.99H157.929V241.69H158.957ZM153.563 247.084C156.542 247.084 158.957 244.669 158.957 241.69H157.929C157.929 244.101 155.974 246.056 153.563 246.056V247.084ZM35.3912 247.084H153.563V246.056H35.3912V247.084ZM29.9969 241.69C29.9969 244.669 32.412 247.084 35.3912 247.084V246.056C32.9795 246.056 31.0245 244.101 31.0245 241.69H29.9969ZM29.9969 205.99V241.69H31.0245V205.99H29.9969ZM31.0245 147.632C31.0245 145.22 32.9795 143.265 35.3912 143.265V142.238C32.412 142.238 29.9969 144.653 29.9969 147.632H31.0245ZM31.0245 183.332L31.0245 147.632H29.9969L29.9969 183.332H31.0245ZM35.3912 187.699C32.9795 187.699 31.0245 185.744 31.0245 183.332H29.9969C29.9969 186.311 32.412 188.726 35.3912 188.726V187.699ZM153.563 187.699H35.3912V188.726H153.563V187.699ZM157.929 183.332C157.929 185.744 155.974 187.699 153.563 187.699V188.726C156.542 188.726 158.957 186.311 158.957 183.332H157.929ZM157.929 147.632V183.332H158.957V147.632H157.929ZM153.563 143.265C155.974 143.265 157.929 145.22 157.929 147.632H158.957C158.957 144.653 156.542 142.238 153.563 142.238V143.265ZM35.3912 143.265H153.563V142.238H35.3912V143.265ZM35.3912 83.8883C32.412 83.8883 29.9969 86.3035 29.9969 89.2827H31.0245C31.0245 86.871 32.9795 84.9159 35.3912 84.9159V83.8883ZM153.563 83.8883L35.3912 83.8883V84.9159L153.563 84.9159V83.8883ZM158.957 89.2827C158.957 86.3035 156.542 83.8883 153.563 83.8883V84.9159C155.974 84.9159 157.929 86.871 157.929 89.2827H158.957ZM158.957 124.983V89.2827H157.929V124.983H158.957ZM153.563 130.377C156.542 130.377 158.957 127.962 158.957 124.983H157.929C157.929 127.394 155.974 129.349 153.563 129.349V130.377ZM35.3912 130.377H153.563V129.349H35.3912V130.377ZM29.9969 124.983C29.9969 127.962 32.412 130.377 35.3912 130.377V129.349C32.9795 129.349 31.0245 127.394 31.0245 124.983H29.9969ZM29.9969 89.2827L29.9969 124.983H31.0245L31.0245 89.2827H29.9969ZM31.0245 30.9272C31.0245 28.5155 32.9795 26.5604 35.3912 26.5604V25.5328C32.412 25.5328 29.9969 27.948 29.9969 30.9272H31.0245ZM31.0245 66.6273L31.0245 30.9272H29.9969L29.9969 66.6273H31.0245ZM35.3912 70.994C32.9795 70.994 31.0245 69.0389 31.0245 66.6273H29.9969C29.9969 69.6064 32.412 72.0216 35.3912 72.0216V70.994ZM153.563 70.994L35.3912 70.994V72.0216L153.563 72.0216V70.994ZM157.929 66.6273C157.929 69.0389 155.974 70.994 153.563 70.994V72.0216C156.542 72.0216 158.957 69.6065 158.957 66.6273H157.929ZM157.929 30.9272V66.6273H158.957V30.9272H157.929ZM153.563 26.5604C155.974 26.5604 157.929 28.5155 157.929 30.9272H158.957C158.957 27.948 156.542 25.5328 153.563 25.5328V26.5604ZM35.3912 26.5604L153.563 26.5604V25.5328L35.3912 25.5328V26.5604ZM392.72 656.763C398.36 656.763 402.959 652.319 402.959 646.807H401.931C401.931 651.723 397.822 655.735 392.72 655.735V656.763ZM382.481 646.807C382.481 652.319 387.08 656.763 392.72 656.763V655.735C387.618 655.735 383.509 651.723 383.509 646.807H382.481ZM392.72 636.851C387.08 636.851 382.481 641.294 382.481 646.807H383.509C383.509 641.89 387.618 637.879 392.72 637.879V636.851ZM402.959 646.807C402.959 641.294 398.36 636.851 392.72 636.851V637.879C397.822 637.879 401.931 641.89 401.931 646.807H402.959ZM425.49 700.723C425.49 718.47 410.832 732.872 392.731 732.872V733.9C411.382 733.9 426.518 719.055 426.518 700.723H425.49ZM392.731 668.575C410.832 668.575 425.49 682.977 425.49 700.723H426.518C426.518 682.392 411.382 667.547 392.731 667.547V668.575ZM359.971 700.723C359.971 682.977 374.629 668.575 392.731 668.575V667.547C374.079 667.547 358.943 682.392 358.943 700.723H359.971ZM392.731 732.872C374.629 732.872 359.971 718.47 359.971 700.723H358.943C358.943 719.055 374.079 733.9 392.731 733.9V732.872Z" fill="black"/>
</svg>
