<svg width="1500" height="1500" viewBox="0 0 1500 1500" fill="none" xmlns="http://www.w3.org/2000/svg">
<g clip-path="url(#clip0_1063_608)">
<path fill-rule="evenodd" clip-rule="evenodd" d="M1795.37 903.011H1521.18C1515.57 903.011 1511.02 907.557 1511.02 913.165V1187.36C1511.02 1192.97 1515.57 1197.52 1521.18 1197.52H1795.37C1800.98 1197.52 1805.53 1202.06 1805.53 1207.67V1481.87C1805.53 1487.48 1800.98 1492.02 1795.37 1492.02H1521.18C1515.57 1492.02 1511.02 1496.57 1511.02 1502.18V1776.37C1511.02 1781.98 1506.48 1786.53 1500.87 1786.53H343.154C337.546 1786.53 333 1781.98 333 1776.37V324.154C333 318.546 337.546 314 343.154 314H1500.87C1506.48 314 1511.02 318.546 1511.02 324.154V598.352C1511.02 603.959 1515.57 608.505 1521.18 608.505L1795.37 608.505C1800.98 608.505 1805.53 613.051 1805.53 618.659V892.857C1805.53 898.465 1800.98 903.011 1795.37 903.011ZM920.826 1578.36C930.856 1578.36 938.987 1570.23 938.987 1560.2C938.987 1550.17 930.856 1542.04 920.826 1542.04C910.796 1542.04 902.665 1550.17 902.665 1560.2C902.665 1570.23 910.796 1578.36 920.826 1578.36ZM984.201 1663.9C984.201 1698.6 956.073 1726.73 921.375 1726.73C886.677 1726.73 858.549 1698.6 858.549 1663.9C858.549 1629.2 886.677 1601.08 921.375 1601.08C956.073 1601.08 984.201 1629.2 984.201 1663.9ZM919.306 988.392C1077.89 988.392 1206.45 859.834 1206.45 701.249C1206.45 542.665 1077.89 414.107 919.306 414.107C760.722 414.107 632.164 542.665 632.164 701.249C632.164 859.834 760.722 988.392 919.306 988.392Z" fill="#FEE600"/>
<path fill-rule="evenodd" clip-rule="evenodd" d="M979.062 1015.8L979.062 -145.14C979.062 -155.004 987.059 -163 996.922 -163L1326.75 -163C1336.62 -163 1344.61 -155.004 1344.61 -145.14V426.398V997.936C1344.61 1007.8 1352.61 1015.8 1362.47 1015.8H2434.7C2444.56 1015.8 2452.56 1023.79 2452.56 1033.66V1292.63C2452.56 1302.5 2444.56 1310.49 2434.7 1310.49H996.922C987.059 1310.49 979.062 1302.5 979.062 1292.63V1015.8ZM1035.75 909.115C1035.75 903.91 1039.97 899.69 1045.17 899.69H1273.38C1278.59 899.69 1282.81 903.91 1282.81 909.115V978.059C1282.81 983.264 1278.59 987.484 1273.38 987.484H1045.17C1039.97 987.484 1035.75 983.264 1035.75 978.059V909.115ZM1045.17 787.018C1039.97 787.018 1035.75 791.238 1035.75 796.443V865.386C1035.75 870.592 1039.97 874.812 1045.17 874.812H1273.38C1278.59 874.812 1282.81 870.592 1282.81 865.386V796.443C1282.81 791.238 1278.59 787.018 1273.38 787.018H1045.17ZM1035.75 683.71C1035.75 678.505 1039.97 674.285 1045.17 674.285H1273.38C1278.59 674.285 1282.81 678.505 1282.81 683.71V752.654C1282.81 757.859 1278.59 762.079 1273.38 762.079H1045.17C1039.97 762.079 1035.75 757.859 1035.75 752.654V683.71ZM1045.17 561.613C1039.97 561.613 1035.75 565.832 1035.75 571.038V639.981C1035.75 645.187 1039.97 649.406 1045.17 649.406H1273.38C1278.59 649.406 1282.81 645.187 1282.81 639.981V571.038C1282.81 565.832 1278.59 561.613 1273.38 561.613H1045.17ZM1035.75 458.38C1035.75 453.175 1039.97 448.955 1045.17 448.955H1273.38C1278.59 448.955 1282.81 453.175 1282.81 458.38V527.324C1282.81 532.529 1278.59 536.749 1273.38 536.749H1045.17C1039.97 536.749 1035.75 532.529 1035.75 527.324V458.38ZM1045.17 336.207C1039.97 336.207 1035.75 340.427 1035.75 345.633V414.576C1035.75 419.781 1039.97 424.001 1045.17 424.001H1273.38C1278.59 424.001 1282.81 419.781 1282.81 414.576V345.633C1282.81 340.427 1278.59 336.207 1273.38 336.207H1045.17ZM1035.75 232.975C1035.75 227.77 1039.97 223.55 1045.17 223.55H1273.38C1278.59 223.55 1282.81 227.77 1282.81 232.975V301.919C1282.81 307.124 1278.59 311.344 1273.38 311.344H1045.17C1039.97 311.344 1035.75 307.124 1035.75 301.919V232.975ZM1045.17 110.848C1039.97 110.848 1035.75 115.067 1035.75 120.273V189.216C1035.75 194.421 1039.97 198.641 1045.17 198.641H1273.38C1278.59 198.641 1282.81 194.421 1282.81 189.216V120.273C1282.81 115.067 1278.59 110.848 1273.38 110.848H1045.17ZM1035.75 7.60029C1035.75 2.3949 1039.97 -1.82491 1045.17 -1.82491L1273.38 -1.82491C1278.59 -1.82491 1282.81 2.39489 1282.81 7.60027V76.5437C1282.81 81.7491 1278.59 85.9689 1273.38 85.9689L1045.17 85.9689C1039.97 85.9689 1035.75 81.7491 1035.75 76.5437V7.60029ZM1045.17 -114.527C1039.97 -114.527 1035.75 -110.308 1035.75 -105.102V-36.1589C1035.75 -30.9535 1039.97 -26.7337 1045.17 -26.7337L1273.38 -26.7337C1278.59 -26.7337 1282.81 -30.9535 1282.81 -36.1589V-105.102C1282.81 -110.308 1278.59 -114.527 1273.38 -114.527L1045.17 -114.527ZM1754.02 1084.28C1754.02 1094.35 1745.61 1102.51 1735.24 1102.51C1724.86 1102.51 1716.45 1094.35 1716.45 1084.28C1716.45 1074.2 1724.86 1066.04 1735.24 1066.04C1745.61 1066.04 1754.02 1074.2 1754.02 1084.28ZM1735.25 1251.48C1770.74 1251.48 1799.51 1223.24 1799.51 1188.4C1799.51 1153.56 1770.74 1125.32 1735.25 1125.32C1699.76 1125.32 1670.99 1153.56 1670.99 1188.4C1670.99 1223.24 1699.76 1251.48 1735.25 1251.48Z" fill="black"/>
<path d="M978.07 -145.14L978.07 1015.8H980.055L980.055 -145.14H978.07ZM996.922 -163.992C986.511 -163.992 978.07 -155.552 978.07 -145.14H980.055C980.055 -154.456 987.607 -162.008 996.922 -162.008V-163.992ZM1326.75 -163.992L996.922 -163.992V-162.008L1326.75 -162.008V-163.992ZM1345.6 -145.14C1345.6 -155.552 1337.16 -163.992 1326.75 -163.992V-162.008C1336.07 -162.008 1343.62 -154.456 1343.62 -145.14H1345.6ZM1345.6 426.398V-145.14H1343.62V426.398H1345.6ZM1345.6 997.936V426.398H1343.62V997.936H1345.6ZM1362.47 1014.8C1353.16 1014.8 1345.6 1007.25 1345.6 997.936H1343.62C1343.62 1008.35 1352.06 1016.79 1362.47 1016.79V1014.8ZM2434.7 1014.8H1362.47V1016.79H2434.7V1014.8ZM2453.55 1033.66C2453.55 1023.24 2445.11 1014.8 2434.7 1014.8V1016.79C2444.01 1016.79 2451.56 1024.34 2451.56 1033.66H2453.55ZM2453.55 1292.63V1033.66H2451.56V1292.63H2453.55ZM2434.7 1311.49C2445.11 1311.49 2453.55 1303.05 2453.55 1292.63H2451.56C2451.56 1301.95 2444.01 1309.5 2434.7 1309.5V1311.49ZM996.922 1311.49H2434.7V1309.5H996.922V1311.49ZM978.07 1292.63C978.07 1303.05 986.511 1311.49 996.922 1311.49V1309.5C987.607 1309.5 980.055 1301.95 980.055 1292.63H978.07ZM978.07 1015.8V1292.63H980.055V1015.8H978.07ZM1045.17 898.698C1039.42 898.698 1034.75 903.362 1034.75 909.115H1036.74C1036.74 904.458 1040.51 900.682 1045.17 900.682V898.698ZM1273.38 898.698H1045.17V900.682H1273.38V898.698ZM1283.8 909.115C1283.8 903.362 1279.14 898.698 1273.38 898.698V900.682C1278.04 900.682 1281.81 904.458 1281.81 909.115H1283.8ZM1283.8 978.059V909.115H1281.81V978.059H1283.8ZM1273.38 988.476C1279.14 988.476 1283.8 983.812 1283.8 978.059H1281.81C1281.81 982.716 1278.04 986.492 1273.38 986.492V988.476ZM1045.17 988.476H1273.38V986.492H1045.17V988.476ZM1034.75 978.059C1034.75 983.812 1039.42 988.476 1045.17 988.476V986.492C1040.51 986.492 1036.74 982.716 1036.74 978.059H1034.75ZM1034.75 909.115V978.059H1036.74V909.115H1034.75ZM1036.74 796.443C1036.74 791.786 1040.51 788.01 1045.17 788.01V786.026C1039.42 786.026 1034.75 790.69 1034.75 796.443H1036.74ZM1036.74 865.386V796.443H1034.75V865.386H1036.74ZM1045.17 873.819C1040.51 873.819 1036.74 870.044 1036.74 865.386H1034.75C1034.75 871.14 1039.42 875.804 1045.17 875.804V873.819ZM1273.38 873.819H1045.17V875.804H1273.38V873.819ZM1281.81 865.386C1281.81 870.044 1278.04 873.819 1273.38 873.819V875.804C1279.14 875.804 1283.8 871.14 1283.8 865.386H1281.81ZM1281.81 796.443V865.386H1283.8V796.443H1281.81ZM1273.38 788.01C1278.04 788.01 1281.81 791.786 1281.81 796.443H1283.8C1283.8 790.69 1279.14 786.026 1273.38 786.026V788.01ZM1045.17 788.01H1273.38V786.026H1045.17V788.01ZM1045.17 673.293C1039.42 673.293 1034.75 677.957 1034.75 683.71H1036.74C1036.74 679.053 1040.51 675.277 1045.17 675.277V673.293ZM1273.38 673.293H1045.17V675.277H1273.38V673.293ZM1283.8 683.71C1283.8 677.957 1279.14 673.293 1273.38 673.293V675.277C1278.04 675.277 1281.81 679.053 1281.81 683.71H1283.8ZM1283.8 752.654V683.71H1281.81V752.654H1283.8ZM1273.38 763.071C1279.14 763.071 1283.8 758.407 1283.8 752.654H1281.81C1281.81 757.311 1278.04 761.087 1273.38 761.087V763.071ZM1045.17 763.071H1273.38V761.087H1045.17V763.071ZM1034.75 752.654C1034.75 758.407 1039.42 763.071 1045.17 763.071V761.087C1040.51 761.087 1036.74 757.311 1036.74 752.654H1034.75ZM1034.75 683.71V752.654H1036.74V683.71H1034.75ZM1036.74 571.038C1036.74 566.38 1040.51 562.605 1045.17 562.605V560.62C1039.42 560.62 1034.75 565.284 1034.75 571.038H1036.74ZM1036.74 639.981V571.038H1034.75V639.981H1036.74ZM1045.17 648.414C1040.51 648.414 1036.74 644.639 1036.74 639.981H1034.75C1034.75 645.735 1039.42 650.399 1045.17 650.399V648.414ZM1273.38 648.414H1045.17V650.399H1273.38V648.414ZM1281.81 639.981C1281.81 644.639 1278.04 648.414 1273.38 648.414V650.399C1279.14 650.399 1283.8 645.735 1283.8 639.981H1281.81ZM1281.81 571.038V639.981H1283.8V571.038H1281.81ZM1273.38 562.605C1278.04 562.605 1281.81 566.38 1281.81 571.038H1283.8C1283.8 565.284 1279.14 560.62 1273.38 560.62V562.605ZM1045.17 562.605H1273.38V560.62H1045.17V562.605ZM1045.17 447.963C1039.42 447.963 1034.75 452.627 1034.75 458.38H1036.74C1036.74 453.723 1040.51 449.947 1045.17 449.947V447.963ZM1273.38 447.963H1045.17V449.947H1273.38V447.963ZM1283.8 458.38C1283.8 452.627 1279.14 447.963 1273.38 447.963V449.947C1278.04 449.947 1281.81 453.723 1281.81 458.38H1283.8ZM1283.8 527.324V458.38H1281.81V527.324H1283.8ZM1273.38 537.741C1279.14 537.741 1283.8 533.077 1283.8 527.324H1281.81C1281.81 531.981 1278.04 535.757 1273.38 535.757V537.741ZM1045.17 537.741H1273.38V535.757H1045.17V537.741ZM1034.75 527.324C1034.75 533.077 1039.42 537.741 1045.17 537.741V535.757C1040.51 535.757 1036.74 531.981 1036.74 527.324H1034.75ZM1034.75 458.38V527.324H1036.74V458.38H1034.75ZM1036.74 345.633C1036.74 340.975 1040.51 337.2 1045.17 337.2V335.215C1039.42 335.215 1034.75 339.879 1034.75 345.633H1036.74ZM1036.74 414.576V345.633H1034.75V414.576H1036.74ZM1045.17 423.009C1040.51 423.009 1036.74 419.233 1036.74 414.576H1034.75C1034.75 420.329 1039.42 424.993 1045.17 424.993V423.009ZM1273.38 423.009H1045.17V424.993H1273.38V423.009ZM1281.81 414.576C1281.81 419.233 1278.04 423.009 1273.38 423.009V424.993C1279.14 424.993 1283.8 420.329 1283.8 414.576H1281.81ZM1281.81 345.633V414.576H1283.8V345.633H1281.81ZM1273.38 337.2C1278.04 337.2 1281.81 340.975 1281.81 345.633H1283.8C1283.8 339.879 1279.14 335.215 1273.38 335.215V337.2ZM1045.17 337.2H1273.38V335.215H1045.17V337.2ZM1045.17 222.558C1039.42 222.558 1034.75 227.222 1034.75 232.975H1036.74C1036.74 228.318 1040.51 224.542 1045.17 224.542V222.558ZM1273.38 222.558H1045.17V224.542H1273.38V222.558ZM1283.8 232.975C1283.8 227.222 1279.14 222.558 1273.38 222.558V224.542C1278.04 224.542 1281.81 228.318 1281.81 232.975H1283.8ZM1283.8 301.919V232.975H1281.81V301.919H1283.8ZM1273.38 312.336C1279.14 312.336 1283.8 307.672 1283.8 301.919H1281.81C1281.81 306.576 1278.04 310.352 1273.38 310.352V312.336ZM1045.17 312.336H1273.38V310.352H1045.17V312.336ZM1034.75 301.919C1034.75 307.672 1039.42 312.336 1045.17 312.336V310.352C1040.51 310.352 1036.74 306.576 1036.74 301.919H1034.75ZM1034.75 232.975V301.919H1036.74V232.975H1034.75ZM1036.74 120.273C1036.74 115.615 1040.51 111.84 1045.17 111.84V109.855C1039.42 109.855 1034.75 114.519 1034.75 120.273H1036.74ZM1036.74 189.216V120.273H1034.75V189.216H1036.74ZM1045.17 197.649C1040.51 197.649 1036.74 193.873 1036.74 189.216H1034.75C1034.75 194.969 1039.42 199.634 1045.17 199.634V197.649ZM1273.38 197.649H1045.17V199.634H1273.38V197.649ZM1281.81 189.216C1281.81 193.874 1278.04 197.649 1273.38 197.649V199.634C1279.14 199.634 1283.8 194.969 1283.8 189.216H1281.81ZM1281.81 120.273V189.216H1283.8V120.273H1281.81ZM1273.38 111.84C1278.04 111.84 1281.81 115.615 1281.81 120.273H1283.8C1283.8 114.519 1279.14 109.855 1273.38 109.855V111.84ZM1045.17 111.84H1273.38V109.855H1045.17V111.84ZM1045.17 -2.81713C1039.42 -2.81713 1034.75 1.84692 1034.75 7.60029H1036.74C1036.74 2.94289 1040.51 -0.832699 1045.17 -0.832699V-2.81713ZM1273.38 -2.81713L1045.17 -2.81713V-0.832699L1273.38 -0.832699V-2.81713ZM1283.8 7.60027C1283.8 1.8469 1279.14 -2.81713 1273.38 -2.81713V-0.832699C1278.04 -0.832699 1281.81 2.94287 1281.81 7.60027H1283.8ZM1283.8 76.5437V7.60027H1281.81V76.5437H1283.8ZM1273.38 86.9611C1279.14 86.9611 1283.8 82.297 1283.8 76.5437H1281.81C1281.81 81.2011 1278.04 84.9766 1273.38 84.9766V86.9611ZM1045.17 86.9611L1273.38 86.9611V84.9766L1045.17 84.9766V86.9611ZM1034.75 76.5437C1034.75 82.297 1039.42 86.9611 1045.17 86.9611V84.9766C1040.51 84.9766 1036.74 81.2011 1036.74 76.5437H1034.75ZM1034.75 7.60029V76.5437H1036.74V7.60029H1034.75ZM1036.74 -105.102C1036.74 -109.76 1040.51 -113.535 1045.17 -113.535V-115.52C1039.42 -115.52 1034.75 -110.856 1034.75 -105.102H1036.74ZM1036.74 -36.1589V-105.102H1034.75V-36.1589H1036.74ZM1045.17 -27.7259C1040.51 -27.7259 1036.74 -31.5015 1036.74 -36.1589H1034.75C1034.75 -30.4055 1039.42 -25.7415 1045.17 -25.7415V-27.7259ZM1273.38 -27.7259L1045.17 -27.7259V-25.7415L1273.38 -25.7415V-27.7259ZM1281.81 -36.1589C1281.81 -31.5015 1278.04 -27.7259 1273.38 -27.7259V-25.7415C1279.14 -25.7415 1283.8 -30.4055 1283.8 -36.1589H1281.81ZM1281.81 -105.102V-36.1589H1283.8V-105.102H1281.81ZM1273.38 -113.535C1278.04 -113.535 1281.81 -109.76 1281.81 -105.102H1283.8C1283.8 -110.856 1279.14 -115.52 1273.38 -115.52V-113.535ZM1045.17 -113.535L1273.38 -113.535V-115.52L1045.17 -115.52V-113.535ZM1735.24 1103.5C1746.13 1103.5 1755.01 1094.92 1755.01 1084.28H1753.02C1753.02 1093.77 1745.09 1101.52 1735.24 1101.52V1103.5ZM1715.46 1084.28C1715.46 1094.92 1724.34 1103.5 1735.24 1103.5V1101.52C1725.38 1101.52 1717.45 1093.77 1717.45 1084.28H1715.46ZM1735.24 1065.05C1724.34 1065.05 1715.46 1073.63 1715.46 1084.28H1717.45C1717.45 1074.78 1725.38 1067.03 1735.24 1067.03V1065.05ZM1755.01 1084.28C1755.01 1073.63 1746.13 1065.05 1735.24 1065.05V1067.03C1745.09 1067.03 1753.02 1074.78 1753.02 1084.28H1755.01ZM1798.52 1188.4C1798.52 1222.67 1770.21 1250.48 1735.25 1250.48V1252.47C1771.27 1252.47 1800.5 1223.8 1800.5 1188.4H1798.52ZM1735.25 1126.31C1770.21 1126.31 1798.52 1154.13 1798.52 1188.4H1800.5C1800.5 1153 1771.27 1124.33 1735.25 1124.33V1126.31ZM1671.98 1188.4C1671.98 1154.13 1700.29 1126.31 1735.25 1126.31V1124.33C1699.23 1124.33 1670 1153 1670 1188.4H1671.98ZM1735.25 1250.48C1700.29 1250.48 1671.98 1222.67 1671.98 1188.4H1670C1670 1223.8 1699.23 1252.47 1735.25 1252.47V1250.48Z" fill="black"/>
<path fill-rule="evenodd" clip-rule="evenodd" d="M607.796 1066.43V1325.86C607.796 1335.6 599.901 1343.49 590.163 1343.49L-553.367 1343.49C-563.105 1343.49 -571 1335.6 -571 1325.86L-571 -112.367C-571 -122.105 -563.105 -130 -553.367 -130L590.163 -130C599.901 -130 607.796 -122.105 607.796 -112.367V147.066C607.796 156.804 615.69 164.699 625.429 164.699H884.861C894.6 164.699 902.495 172.594 902.495 182.332L902.495 1031.16C902.495 1040.9 894.6 1048.8 884.861 1048.8H625.429C615.69 1048.8 607.796 1056.69 607.796 1066.43ZM7.44753 324.189C17.6602 324.189 25.9392 316.053 25.9392 306.016C25.9392 295.98 17.6602 287.843 7.44753 287.843C-2.76518 287.843 -11.0442 295.98 -11.0442 306.016C-11.0442 316.053 -2.76518 324.189 7.44753 324.189ZM104.767 37.4841C104.767 94.7205 58.3613 141.12 1.11666 141.12C-56.128 141.12 -102.534 94.7205 -102.534 37.4841C-102.534 -19.7523 -56.128 -66.1516 1.11666 -66.1516C58.3613 -66.1516 104.767 -19.7523 104.767 37.4841ZM318.359 141.223C375.598 141.223 422 94.7957 422 37.5246C422 -19.7465 375.598 -66.1739 318.359 -66.1739C261.121 -66.1739 214.719 -19.7465 214.719 37.5246C214.719 94.7957 261.121 141.223 318.359 141.223ZM-213.091 37.5246C-213.091 94.7957 -259.492 141.223 -316.731 141.223C-373.97 141.223 -420.371 94.7957 -420.371 37.5246C-420.371 -19.7465 -373.97 -66.1739 -316.731 -66.1739C-259.492 -66.1739 -213.091 -19.7465 -213.091 37.5246ZM-448.818 680.778C-454.477 680.778 -459.063 685.365 -459.063 691.023L-459.063 1270.74C-459.063 1276.4 -454.477 1280.98 -448.818 1280.98L462.088 1280.98C467.746 1280.98 472.333 1276.4 472.333 1270.74L472.333 691.023C472.333 685.365 467.746 680.778 462.088 680.778L-448.818 680.778Z" fill="#00BDFF"/>
<path fill-rule="evenodd" clip-rule="evenodd" d="M-403.003 542.392C-403.003 532.787 -395.217 525 -385.611 525L1052.13 525C1061.74 525 1069.52 532.787 1069.52 542.392V802.113C1069.52 811.719 1061.74 819.505 1052.13 819.505L497.905 819.505C488.3 819.505 480.513 827.292 480.513 836.898L480.513 1980.13C480.513 1989.74 472.726 1997.53 463.12 1997.53H203.4C193.794 1997.53 186.007 1989.74 186.007 1980.13L186.007 836.898C186.007 827.292 178.22 819.505 168.615 819.505L-385.611 819.505C-395.217 819.505 -403.003 811.719 -403.003 802.113V542.392ZM332.495 1791.35C322.349 1791.35 314.125 1783.22 314.125 1773.19C314.125 1763.16 322.349 1755.03 332.495 1755.03C342.64 1755.03 350.865 1763.16 350.865 1773.19C350.865 1783.22 342.64 1791.35 332.495 1791.35ZM269.155 1876.89C269.155 1911.59 297.295 1939.72 332.007 1939.72C366.72 1939.72 394.86 1911.59 394.86 1876.89C394.86 1842.19 366.72 1814.07 332.007 1814.07C297.295 1814.07 269.155 1842.19 269.155 1876.89ZM332.318 1072.3C298.092 1072.3 270.346 1044.57 270.346 1010.36C270.346 976.145 298.092 948.411 332.318 948.411C366.544 948.411 394.289 976.145 394.289 1010.36C394.289 1044.57 366.544 1072.3 332.318 1072.3ZM270.374 1310.76C270.374 1344.97 298.119 1372.71 332.345 1372.71C366.571 1372.71 394.317 1344.97 394.317 1310.76C394.317 1276.55 366.571 1248.82 332.345 1248.82C298.119 1248.82 270.374 1276.55 270.374 1310.76ZM332.823 770.394C277.498 770.394 232.648 725.564 232.648 670.262C232.648 614.961 277.498 570.13 332.823 570.13C388.147 570.13 432.997 614.961 432.997 670.262C432.997 725.564 388.147 770.394 332.823 770.394Z" fill="#FF0198"/>
</g>
<defs>
<clipPath id="clip0_1063_608">
<rect width="1500" height="1500" fill="white"/>
</clipPath>
</defs>
</svg>
