<svg width="763" height="763" viewBox="0 0 763 763" fill="none" xmlns="http://www.w3.org/2000/svg">
<path fill-rule="evenodd" clip-rule="evenodd" d="M610.401 619.539V753.878C610.401 758.921 606.313 763.009 601.27 763.009L9.13076 763.009C4.088 763.009 0 758.921 0 753.878L0 9.13856C0 4.0958 4.08796 0.0078125 9.13073 0.0078125L601.27 0.0078125C606.313 0.0078125 610.401 4.09578 610.401 9.13854V143.477C610.401 148.52 614.489 152.608 619.532 152.608H753.87C758.913 152.608 763.001 156.696 763.001 161.739L763.001 601.278C763.001 606.321 758.913 610.409 753.87 610.409H619.532C614.489 610.409 610.401 614.497 610.401 619.539ZM299.526 235.196C304.814 235.196 309.101 230.983 309.101 225.786C309.101 220.589 304.814 216.375 299.526 216.375C294.238 216.375 289.951 220.589 289.951 225.786C289.951 230.983 294.238 235.196 299.526 235.196ZM349.919 86.7369C349.919 116.375 325.889 140.401 296.247 140.401C266.605 140.401 242.575 116.375 242.575 86.7369C242.575 57.0989 266.605 33.0725 296.247 33.0725C325.889 33.0725 349.919 57.0989 349.919 86.7369ZM460.526 140.458C490.166 140.458 514.193 116.417 514.193 86.761C514.193 57.105 490.166 33.0641 460.526 33.0641C430.887 33.0641 406.86 57.105 406.86 86.761C406.86 116.417 430.887 140.458 460.526 140.458ZM185.33 86.761C185.33 116.417 161.303 140.458 131.664 140.458C102.024 140.458 77.997 116.417 77.997 86.761C77.997 57.105 102.024 33.0641 131.664 33.0641C161.303 33.0641 185.33 57.105 185.33 86.761ZM63.2638 419.845C60.334 419.845 57.9588 422.22 57.9588 425.15L57.9588 725.336C57.9588 728.266 60.3339 730.641 63.2638 730.641L534.947 730.641C537.877 730.641 540.252 728.266 540.252 725.336L540.252 425.15C540.252 422.22 537.877 419.845 534.947 419.845L63.2638 419.845Z" fill="#00BDFF"/>
</svg>
