<svg width="763" height="763" viewBox="0 0 763 763" fill="none" xmlns="http://www.w3.org/2000/svg">
<path fill-rule="evenodd" clip-rule="evenodd" d="M757.61 305H615.625C612.721 305 610.367 307.354 610.367 310.258V452.242C610.367 455.146 612.721 457.5 615.625 457.5H757.61C760.513 457.5 762.867 459.854 762.867 462.758V604.742C762.867 607.646 760.513 610 757.61 610H615.625C612.721 610 610.367 612.354 610.367 615.258V757.242C610.367 760.146 608.013 762.5 605.11 762.5H5.62508C2.72125 762.5 0.367188 760.146 0.367188 757.242V5.25785C0.367188 2.35402 2.72121 0 5.62504 0H605.11C608.013 0 610.367 2.35402 610.367 5.25785V147.242C610.367 150.146 612.721 152.5 615.625 152.5L757.61 152.5C760.513 152.5 762.867 154.854 762.867 157.758V299.742C762.867 302.646 760.513 305 757.61 305ZM304.761 654.708C309.955 654.708 314.165 650.497 314.165 645.304C314.165 640.11 309.955 635.899 304.761 635.899C299.567 635.899 295.357 640.11 295.357 645.304C295.357 650.497 299.567 654.708 304.761 654.708ZM337.576 699.003C337.576 716.97 323.01 731.535 305.043 731.535C287.076 731.535 272.511 716.97 272.511 699.003C272.511 681.036 287.076 666.47 305.043 666.47C323.01 666.47 337.576 681.036 337.576 699.003ZM303.972 349.209C386.09 349.209 452.66 282.64 452.66 200.522C452.66 118.404 386.09 51.8344 303.972 51.8344C221.855 51.8344 155.285 118.404 155.285 200.522C155.285 282.64 221.855 349.209 303.972 349.209Z" fill="#FEE600"/>
</svg>
